<svg xmlns="http://www.w3.org/2000/svg" width="227" height="129" viewBox="0 0 227 129"><g fill="none" fill-rule="evenodd"><path fill="#C3242A" d="M9.866 121.304l2.281-.32c1.286-.181 2.474.727 2.657 2.028l.008.059c.183 1.301-.71 2.501-1.994 2.682l-2.281.32c-1.284.18-2.474-.726-2.657-2.028l-.008-.06c-.183-1.3.71-2.5 1.994-2.681"/><path fill="#E8D7BD" d="M7.981 74.471l-4.515-6.983-2.416 7.958.29 2.067 6.932-.974z"/><path fill="#5D5C5A" d="M3.467 67.487l-.821 2.547 2.31-.325z"/><path fill="#EDC55C" d="M7.182 74.26c-.437.062-.67.5-1.252.582a.93.93 0 01-.252.002l.07.492 6.582 46.837 2.31-.324-6.582-46.837-.065-.46s-.376-.353-.811-.292m-4.056.976c-.581.082-.929-.275-1.363-.214-.437.061-.702.504-.702.504l.065.46 6.582 46.837 2.311-.325-6.582-46.837-.07-.493a.914.914 0 01-.241.068"/><path fill="#D8A25D" d="M4.47 74.641c-.614.087-.73.432-1.094.589l.07.493 6.573 46.775 2.31-.325-6.573-46.775-.07-.493c-.393-.05-.6-.35-1.215-.264"/><path fill="#5D5C5A" fill-rule="nonzero" d="M7.709 122.823l6.931-.974.168 1.192-6.932.974z"/><path fill="#C3242A" d="M23.839 110.132l2.29.241c1.291.136 2.225 1.305 2.087 2.61l-.006.06c-.137 1.308-1.293 2.256-2.584 2.12l-2.29-.24c-1.29-.136-2.225-1.304-2.087-2.611l.006-.06c.137-1.306 1.294-2.255 2.584-2.12"/><path fill="#E8D7BD" d="M33.34 64.235l-2.693-7.869-4.269 7.137-.218 2.077 6.961.732z"/><path fill="#5D5C5A" d="M30.649 56.366l-1.413 2.273 2.32.244z"/><path fill="#50808B" d="M32.615 63.837c-.439-.046-.771.323-1.355.261a.93.93 0 01-.245-.059l-.052.495-4.944 47.038 2.32.244 4.944-47.038.049-.462s-.28-.433-.717-.48m-4.172-.034c-.583-.061-.834-.491-1.27-.537-.44-.046-.803.32-.803.32l-.048.461-4.944 47.038 2.32.244 4.944-47.038.052-.495a.914.914 0 01-.25.007"/><path fill="#0C576F" d="M29.892 63.55c-.617-.064-.813.242-1.204.307l-.052.495-4.938 46.976 2.32.244 4.938-46.976.052-.495c-.37-.145-.498-.485-1.116-.55"/><path fill="#5D5C5A" fill-rule="nonzero" d="M21.378 111.085l6.961.731-.126 1.198-6.961-.732z"/><g><path fill="#C3242A" d="M15.515 123.233l2.302.08c1.297.045 2.31 1.146 2.264 2.459l-.002.06c-.046 1.313-1.133 2.34-2.43 2.294l-2.302-.08c-1.296-.045-2.31-1.145-2.264-2.459l.002-.06c.046-1.312 1.134-2.34 2.43-2.294"/><path fill="#E8D7BD" d="M21.791 76.785l-3.235-7.662-3.76 7.417-.073 2.087 6.995.244z"/><path fill="#5D5C5A" d="M18.558 69.122l-1.251 2.366 2.332.082z"/><path fill="#97AB48" d="M21.04 76.438c-.44-.016-.747.375-1.333.355a.93.93 0 01-.25-.042l-.016.497-1.651 47.269 2.332.081 1.65-47.268.017-.464s-.31-.413-.749-.428m-4.164.256c-.586-.02-.867-.432-1.305-.447-.441-.016-.778.374-.778.374l-.016.464-1.65 47.269 2.331.081 1.65-47.268.018-.497a.914.914 0 01-.25.024"/><path fill="#727D31" d="M18.304 76.342c-.62-.021-.794.298-1.18.39l-.018.497-1.648 47.206 2.332.082 1.648-47.206.018-.498c-.379-.118-.531-.45-1.152-.47"/><path fill="#5D5C5A" fill-rule="nonzero" d="M13.126 124.354l6.996.245-.042 1.203-6.996-.244z"/></g><path fill="#78706A" d="M32 97H0l3.835 32h24.323z"/><g><path fill="#ABB2BA" d="M227 92.517v14.12c0 2.972-2.371 5.38-5.3 5.38H67.3c-2.927 0-5.3-2.408-5.3-5.38v-14.12h165z"/><path fill="#506572" d="M62 93V5.368C62 2.403 64.373 0 67.3 0h154.4c2.929 0 5.3 2.403 5.3 5.368V93H62z"/><path fill="#627282" d="M68 87V8.694A2.69 2.69 0 0170.684 6h147.632A2.69 2.69 0 01221 8.694V87H68z"/><path fill="#ABB2BA" d="M125 126h39v-15h-39z"/><path fill="#ABB2BA" d="M110 129h69v-4.5h-69z"/><path fill="#FFF" d="M120 27h50a2 2 0 012 2v28a2 2 0 01-2 2h-50a2 2 0 01-2-2V29a2 2 0 012-2z"/><path fill="#E7E9E9" d="M120.008 65.857h43.294c1.11 0-45.302-35.678-45.302-35.678v33.657c0 1.115.899 2.021 2.008 2.021"/><path fill="#E7E9E9" d="M169.992 65.857h-43.294C125.59 65.857 172 30.18 172 30.18v33.657a2.015 2.015 0 01-2.008 2.021"/></g></g></svg>