<svg width="228" height="100" viewBox="0 0 228 100" xmlns="http://www.w3.org/2000/svg" xmlns:xlink="http://www.w3.org/1999/xlink"><defs><path d="M22.16 0C34.354.02 44.22 11.6 44.2 25.866c-.018 12.005.022 26.316-21.135 26.716-.158.006-.327.006-.49.01-.166.001-.323.01-.493.01-.22-.002-.384-.01-.557-.012-.155-.005-.316-.005-.467-.01C-.1 52.11-.017 37.798 0 25.792.066 11.53 9.97-.02 22.161 0z" id="a"/><path d="M13.746.914C8.492 3.463 0 10.92 0 17.825v22.349h36c6.627 0 12-5.373 12-12V17.825C48 10.373 37.937 2.277 32.857.403c-3.2 3.827-13.863 5.094-19.11.51z" id="c"/><path d="M37.813 2.87C43.588 5.927 52 13.389 52 20.323V32c0 6.627-5.373 12-12 12H0V20.323c0-6.657 7.62-13.8 13.28-17.066 1.04 1.77 3.781 8.823 12.126 8.823 8.283 0 12.238-7.459 12.407-9.21z" id="e"/><path d="M.072 28.248c.03-4.676 1.283-8.213 3.76-10.611 0 0-.896 4.112-.273 3.257 3.527-4.829 12.543-.558 15.93-6.789.427 3.43-3.848 4.465-3.848 4.465 3.408.67 6.361-.754 7.161-2.445.264 1.379.369 2.294-.815 3.237 4.189-.823 3.342-3.815 3.342-3.815.596 3.969 6.792 2.57 6.792 9.069l.21 5.715c0 .212 2.063 1.05 4.16.622-.065-.492.653-.94 2.153-1.343.209.187.344-1.347.405-4.603C39.31 10.023 31.166 0 19.96 0 9.262 0 .11 7.664.117 20.894c-.234 1.267-.045 7.452-.045 7.354z" id="g"/><path d="M11.991 8.81c2.774 0 3.966.896 7.46 1.729 12.51 2.983 15.17-7.975 15.953-8.494 1.304-1.224 1.895.76 1.714 1.547-4.042 17.609-17.971 19.759-25.253 19.759C4.375 23.351-1.076 12.698.18 0 .66 2.636 1.518 11.553 6.55 9.805c3.952-1.373 2.667-.995 5.441-.995zm-6.049 5.28c0 1.651 2.68 2.99 5.985 2.99 3.306 0 5.986-1.339 5.986-2.99 0-1.651-2.68-3.954-5.986-3.954-3.305 0-5.985 2.303-5.985 3.954z" id="i"/></defs><g fill="none" fill-rule="evenodd"><g transform="translate(86.93 12.75)"><mask id="b" fill="#fff"><use xlink:href="#a"/></mask><use fill="#F5B773" xlink:href="#a"/><g mask="url(#b)" fill="#F6B873"><path d="M-8.53-10.65h59v70h-59z"/></g></g><path d="M124.254 45.806c-.1-.194-4.253-2.231-6.011-14.498-8.025 6.154-24.273 3.545-27.592 6.853-.012.238-2.481 12.703 5.596 19.709 1.31 1.137 3.284 1.705 3.152 2.107-1.086.499-2.687 1.66-2.687 1.66s3.807 21.634 12.548 21.634c8.77 0 12.22-22.518 12.22-22.518s-2.436-1.064-2.239-1.996c.199-.932 3.779-5.62 3.779-5.62s2.7-1.018 4.198-2.273c1.499-1.256 1.201-3.96 0-4.786-1.21-.831-2.924-.286-2.964-.272z" fill="#E7E5E2"/><g transform="translate(85.659 59.116)"><mask id="d" fill="#fff"><use xlink:href="#c"/></mask><use fill="#D8A25D" xlink:href="#c"/><g mask="url(#d)"><path fill="#0C5EA8" d="M-29.333 66.348h112v-91h-112z"/></g></g><path d="M97.877 60.762c.927 1.544 5.092 9.229 11.234 13.962 6.1-4.661 11.457-12.923 11.457-14.36a23.363 23.363 0 0 0-1.855-.998c-3.037 2.693-11.25 6.045-19.353.524-.954.5-1.483.872-1.483.872z" fill="#FFF"/><g><path d="M113.914 49.757a3.03 3.03 0 0 1-3.022 3.04 3.031 3.031 0 0 1-3.023-3.04 3.03 3.03 0 0 1 3.023-3.039 3.03 3.03 0 0 1 3.022 3.04" fill="#E8CCC8"/><path d="M99.645 43.644c.793.592 1.972-.886 2.334-2.097.07-.23.322-1.31-.17-1.608-.493-.298-1 .068-1.081.137-.963.812-1.95 2.92-1.083 3.568M109.607 44.41c1.069-.487.471-2.298-.414-3.204-.168-.172-1.005-.914-1.604-.578-.6.335-.592.99-.581 1.098.122 1.298 1.43 3.217 2.6 2.684" fill="#635E59"/><path d="M104.95 53.562a6.26 6.26 0 0 1-.441.083 6.377 6.377 0 0 1-1.073.082 3.233 3.233 0 0 1-.505-.044c-.53-.095-.92-.265-1.197-.484-.232-.184-.332-.349-.353-.426a.436.436 0 0 0-.54-.308.448.448 0 0 0-.302.552c.07.25.269.58.66.888.392.31.915.539 1.582.658.198.035.412.054.64.058.393.007.808-.029 1.22-.093a7.06 7.06 0 0 0 .506-.095.447.447 0 0 0 .327-.536.437.437 0 0 0-.524-.335z" fill="#D19E9C" fill-rule="nonzero"/><path d="M101.509 44.215c-.109.1-.223.185-.344.257a2.013 2.013 0 0 1-1.502.235c-.697-.1-1.168-.023-1.34.194-.68.851-.462 1.753.702 2.493.612.389 1.454.526 1.9.324a.428.428 0 0 1 .57.225.445.445 0 0 1-.22.582c-.738.333-1.871.15-2.707-.382-1.581-1.006-1.943-2.51-.916-3.8.422-.528 1.16-.648 2.13-.51.07.015.094.02.124.025a1.19 1.19 0 0 0 1.025-.299.425.425 0 0 1 .61.033c.16.181.145.46-.032.623z" fill="#D1BFA3" fill-rule="nonzero"/></g><g><g fill="#E7E5E2"><path d="M38.436 50.09c.296-.08.463-.41.374-.746L36.869 42.1c-.23-.857-1.041-1.39-1.803-1.186-.764.205-1.198 1.069-.968 1.928l1.685 6.287c.231.862 1.04 1.394 1.805 1.188l.848-.227z"/><path d="M41.566 59.225c-.985.726 1.812 16.762 13.089 16.775 10.875.013 11.31-15.65 11.281-16.387-.498-.272-1.199-.502-1.838-.744.838-.159 2.288-.257 3.387-1.483 3.451-3.853 5.895-14.09 5.895-20.078 0-12.502-7.093-22.64-18.175-22.64-11.08 0-20.06 10.138-20.06 22.64 0 6.39 1.875 11.037 5.303 14.507 1.056 1.07 2.856 3.64 2.817 6.461-.57.356-1.106.593-1.699.949z"/></g><g transform="matrix(-1 0 0 1 79.115 55.875)"><mask id="f" fill="#fff"><use xlink:href="#e"/></mask><use fill="#D8A25D" xlink:href="#e"/><g mask="url(#f)"><path fill="#5C4378" d="M-31.778 69.703h121v-89h-121z"/></g><g mask="url(#f)"><path d="M45.669 28.217H31.034a1.173 1.173 0 0 1-1.182-1.164V19.3c0-.644.529-1.166 1.182-1.166h14.635c.653 0 1.183.522 1.183 1.166v7.753c0 .643-.53 1.164-1.183 1.164" fill="#D2242A"/><path d="M42 23.642c0 1.904-1.597 3.45-3.569 3.45-1.975 0-3.574-1.546-3.574-3.45 0-1.904 1.599-3.45 3.574-3.45 1.972 0 3.57 1.546 3.57 3.45M33.804 25.162h-.697l.744-1.762h.699zM42.584 25.162h-.432l.745-1.762h.431zM43.776 25.162h-.183l.743-1.762h.182z" fill="#FFF"/><path d="M35.718 25.154h.548c.029 0 .05-.021.05-.048v-1.65c0-.026-.021-.047-.05-.047h-.554a.062.062 0 0 0-.064.062l-.218.52c-.013.026.009.058.038.058h.157c.023 0 .043.017.043.043v1.014c0 .027.022.048.05.048" fill="#C52D35"/><path d="M36.909 25.154h.55c.028 0 .053-.021.053-.048v-1.65c0-.026-.025-.047-.053-.047h-.855a.063.063 0 0 0-.065.062l-.219.52-.075.058h.438c.097 0 .176.075.176.17v.887c0 .027.022.048.05.048M39.368 23.41h-.55a.049.049 0 0 0-.05.047v1.65c0 .026.023.047.05.047h.556a.062.062 0 0 0 .064-.063l.218-.518c.013-.029-.008-.06-.041-.06h-.152a.042.042 0 0 1-.043-.04v-1.016c0-.027-.025-.048-.052-.048" fill="#C52D35"/><path d="M37.106 25.154h.362a.063.063 0 0 0 .063-.062l.218-.52c.013-.028-.008-.06-.04-.06h-.153l-.45.642zM40.84 23.41h.654c.032 0 .054.028.041.057l-.693 1.66c-.005.017-.02.027-.04.027h-.592l.587-1.716a.046.046 0 0 1 .043-.029" fill="#C52D35"/><path d="M40.02 23.41h-.925c-.065 0 .266.06.29.118l.653 1.57a.088.088 0 0 0 .084.056h.561l-.577-1.686a.089.089 0 0 0-.086-.059M38.813 23.969c0 .351-.046.372-.046.372s-.052-.337-.322-.337c-.264 0-.324.15-.324.26 0 .129.135.25.21.25h.482l-.285.607a.058.058 0 0 1-.052.033h-.22c-.228 0-.826-.29-.826-.851 0-.562.444-.894.815-.894.306 0 .568.203.568.56z" fill="#C52D35"/><path d="M39.231 19.735h-1.516a.2.2 0 0 1-.203-.196v-.247a.2.2 0 0 1 .203-.196h1.516a.2.2 0 0 1 .203.196v.247a.2.2 0 0 1-.203.196" fill="#5A1F57"/><path fill="#C2B5CF" d="M38.034 19.51h.878v-2.293h-.878z"/></g></g><g transform="matrix(-1 0 0 1 73.382 11.817)"><mask id="h" fill="#fff"><use xlink:href="#g"/></mask><use fill="#F6B873" xlink:href="#g"/><g mask="url(#h)" fill="#3E3832"><path d="M-13.364-28.147h66v77h-66z"/></g></g><path d="M57.784 48.1c.023.064.083.192.185.363.173.293.398.588.678.863.99.968 2.397 1.453 4.344 1.188.966-.132 1.648-.603 2.116-1.322a3.78 3.78 0 0 0 .543-1.383.49.49 0 0 1 .549-.418c.269.033.46.274.426.538-.059.46-.258 1.117-.689 1.78-.614.945-1.54 1.585-2.81 1.758-2.257.308-3.97-.283-5.174-1.46-.593-.58-.937-1.164-1.091-1.575a.478.478 0 0 1 .292-.617.495.495 0 0 1 .63.286z" fill="#593A32" fill-rule="nonzero"/><path d="M68.299 38.249c-1.05.34-1.81-1.569-1.787-2.931.004-.259.1-1.45.729-1.59.628-.141 1.046.405 1.11.502.754 1.154 1.096 3.645-.052 4.019M56.502 38.443c-1.298.211-1.836-1.779-1.556-3.129.053-.256.388-1.43 1.153-1.492.766-.063 1.156.53 1.211.634.673 1.24.612 3.757-.808 3.987" fill="#635E59"/><path d="M64.91 39.68a2.347 2.347 0 0 0 2.074.53c.783-.107 1.313-.024 1.507.209.762.916.519 1.887-.79 2.684-.687.419-1.634.566-2.135.35a.49.49 0 0 0-.64.241c-.109.24.002.52.247.627.828.359 2.102.16 3.041-.411 1.778-1.084 2.185-2.703 1.03-4.091-.475-.57-1.304-.699-2.395-.55-.077.016-.104.022-.138.027a1.386 1.386 0 0 1-1.152-.322.493.493 0 0 0-.686.036.468.468 0 0 0 .036.67z" fill="#D1BFA3" fill-rule="nonzero"/><g><g transform="matrix(-1 0 0 1 73.38 36.731)"><mask id="j" fill="#fff"><use xlink:href="#i"/></mask><use fill="#85817F" xlink:href="#i"/><g mask="url(#j)" fill="#3E3832"><path d="M-10.476-31.03h66v77h-66z"/></g></g></g></g><g><path d="M17.341 90.04c.892 0 1.614-.715 1.614-1.598 0-.883-.722-1.599-1.614-1.599-.464 0-.88.197-1.174.508A1.58 1.58 0 0 0 16 89.33c.29.427.782.71 1.341.71zm-.144-5.986c2.416 0 4.375 1.94 4.375 4.334 0 2.394-1.959 4.334-4.375 4.334a4.392 4.392 0 0 1-1.463-.253l-.633 7.473H2.067L.498 81.418h16.173l-.23 2.705c.246-.043.498-.069.756-.069z" fill="#C52C35"/><path d="M11.13 89.342c0 1.885-1.542 3.413-3.444 3.413-1.903 0-3.446-1.528-3.446-3.413 0-1.885 1.543-3.413 3.446-3.413 1.902 0 3.445 1.528 3.445 3.413M3.223 90.847h-.672l.718-1.743h.671zM11.692 90.847h-.416l.717-1.743h.416zM12.84 90.847h-.176l.718-1.743h.176z" fill="#FFF"/><path d="M5.07 90.84h.53a.048.048 0 0 0 .048-.049V89.16a.048.048 0 0 0-.048-.049h-.536a.062.062 0 0 0-.062.062l-.21.514a.041.041 0 0 0 .038.058h.15c.022 0 .04.019.04.042v1.004c0 .026.023.048.05.048" fill="#C52C35"/><path d="M6.22 90.84h.53c.026 0 .048-.023.048-.049V89.16a.049.049 0 0 0-.049-.049h-.824a.063.063 0 0 0-.063.062l-.21.514-.074.058H6c.094 0 .171.076.171.17v.876c0 .026.021.048.049.048M8.59 89.111h-.53a.049.049 0 0 0-.048.048v1.632c0 .026.022.048.049.048h.535a.063.063 0 0 0 .063-.062l.21-.514a.042.042 0 0 0-.039-.058h-.149a.042.042 0 0 1-.042-.041v-1.005a.048.048 0 0 0-.048-.048" fill="#C52C35"/><path d="M6.409 90.84h.347a.063.063 0 0 0 .063-.063l.21-.514a.042.042 0 0 0-.039-.058h-.148l-.433.634zM10.01 89.111h.631c.03 0 .051.03.04.058l-.667 1.643a.043.043 0 0 1-.04.027h-.571l.567-1.699a.042.042 0 0 1 .04-.029" fill="#C52C35"/><path d="M9.22 89.111h-.893c-.062 0 .256.062.279.119l.631 1.555a.088.088 0 0 0 .081.054h.542l-.558-1.668a.086.086 0 0 0-.082-.06M7.508 89.111c.296 0 .547.201.547.553 0 .351-.043.37-.043.37s-.052-.331-.31-.331c-.257 0-.315.147-.315.254 0 .128.129.248.203.248h.465l-.276.602a.054.054 0 0 1-.049.032h-.21c-.222 0-.8-.287-.8-.843s.43-.885.788-.885" fill="#C52C35"/></g><g><path fill="#B0CAC9" d="M152.647 68.19h63.51V2.62h-63.51z"/><path fill="#98B5B4" d="M194.451 67.381h21.706V40.667H194.45z"/><path fill="#98B5B4" d="M168.725 68.19h28.138V47.143h-28.138z"/><path fill="#98B5B4" d="M186.412 67.381h15.274V28.524h-15.274zM152.647 67.381h6.431V38.238h-6.43zM159.078 67.381h9.647V53.619h-9.647z"/><path fill="#FFF" d="M172.745 56.048h3.216V52.81h-3.216zM178.373 56.048h3.215V52.81h-3.215zM184 56.048h3.216V52.81H184zM189.627 56.048h3.216V52.81h-3.216zM172.745 61.714h3.216v-3.238h-3.216zM178.373 61.714h3.215v-3.238h-3.215zM184 61.714h3.216v-3.238H184zM189.627 61.714h3.216v-3.238h-3.216z"/><path stroke="#403A33" stroke-width="3" stroke-linecap="round" stroke-linejoin="round" d="M151.843 35H184V2.619h-32.157z"/><path stroke="#514C47" stroke-width="3" stroke-linecap="round" stroke-linejoin="round" d="M184 35h32.157V2.619H184zM151.843 67.381H184V35h-32.157zM184 67.381h32.157V35H184z"/><path d="M143 68.19h82" stroke="#514C47" stroke-width="6" stroke-linecap="round" stroke-linejoin="round"/><path stroke="#514C47" stroke-width="4" stroke-linecap="round" stroke-linejoin="round" d="M151.843 68.19h65.118V2.62h-65.118z"/><path fill="#DEDEDA" d="M149.431 6.667h69.138V1H149.43zM149.431 12.333h69.138V6.667H149.43zM149.431 18.81h69.138v-5.667H149.43z"/></g></g></svg>