<svg xmlns="http://www.w3.org/2000/svg" xmlns:xlink="http://www.w3.org/1999/xlink" width="80" height="80"><defs><circle id="a" cx="40" cy="40" r="40"/><path id="c" d="M48.556 23.994h-.042C48.514 10.742 38.96 0 27.174 0 15.39 0 5.837 10.742 5.837 23.994v.012C5.833 35.322 0 41.793 0 41.793s5.76 7.069 27.175 7.069h.042c21.417 0 27.177-7.07 27.177-7.07s-5.838-6.474-5.838-17.798"/><path id="e" d="M31.413 2.4C36.212 4.958 43.2 11.198 43.2 16.998V27.2a9.6 9.6 0 0 1-9.6 9.6H0V16.998C0 11.43 6.33 5.456 11.033 2.724c.863 1.48 3.141 7.379 10.073 7.379 6.882 0 10.167-6.238 10.307-7.703z"/></defs><g fill="none" fill-rule="evenodd"><mask id="b" fill="#fff"><use xlink:href="#a"/></mask><g mask="url(#b)"><path fill="#99BDCD" d="M-6.4 79.812H94.362V0H-6.4z"/></g><g mask="url(#b)"><g transform="translate(12.8 6.4)"><mask id="d" fill="#fff"><use xlink:href="#c"/></mask><use fill="#E57F68" xlink:href="#c"/><g fill="#D2654C" mask="url(#d)"><path d="M0-1.6h55.2v63.2H0z"/></g></g><path fill="#E7E5E2" d="M29.6 49.338c.817 1.307 3.112 24.262 10 24.262 6.89 0 10-23.382 10-24.6-10.548-6.042-20 .338-20 .338z"/><g transform="translate(18.4 46.4)"><mask id="f" fill="#fff"><use xlink:href="#e"/></mask><use fill="#D8A25D" xlink:href="#e"/><g mask="url(#f)"><path fill="#5C4378" d="M-26.4 58.86H74.4v-75H-26.4z"/></g><g mask="url(#f)"><path fill="#D2242A" d="M38.198 24H25.801a1.008 1.008 0 0 1-1.001-1.016v-6.767a1.01 1.01 0 0 1 1.001-1.017h12.397a1.01 1.01 0 0 1 1.002 1.017v6.767A1.01 1.01 0 0 1 38.198 24"/><path fill="#FFF" d="M35.091 20.007a3.018 3.018 0 0 1-3.024 3.01 3.019 3.019 0 0 1-3.027-3.01 3.019 3.019 0 0 1 3.027-3.01 3.018 3.018 0 0 1 3.024 3.01m-6.944 1.327h-.59l.63-1.538h.592zm7.438 0h-.366l.63-1.538h.366zm1.009 0h-.155l.63-1.538h.154z"/><path fill="#C52D35" d="M29.769 21.326h.464a.042.042 0 0 0 .043-.041v-1.44a.042.042 0 0 0-.043-.041h-.47a.053.053 0 0 0-.053.054l-.185.453a.037.037 0 0 0 .032.052h.133c.02 0 .037.014.037.036v.886a.04.04 0 0 0 .042.041"/><path fill="#C52D35" d="M30.778 21.326h.466c.024 0 .044-.018.044-.041v-1.44c0-.023-.02-.041-.044-.041h-.725a.054.054 0 0 0-.054.054l-.186.453-.064.052h.371c.082 0 .15.065.15.148v.774a.04.04 0 0 0 .042.041m2.083-1.522h-.466a.042.042 0 0 0-.042.041v1.44c0 .023.019.041.042.041h.471a.053.053 0 0 0 .054-.054l.185-.453a.037.037 0 0 0-.035-.052h-.129a.036.036 0 0 1-.036-.036v-.886c0-.023-.021-.041-.044-.041"/><path fill="#C52D35" d="M30.945 21.326h.306c.03 0 .054-.025.054-.053l.185-.455a.037.037 0 0 0-.035-.051h-.129l-.381.56zm3.163-1.522h.553c.027 0 .047.025.035.05l-.586 1.449c-.005.015-.018.023-.034.023h-.502l.497-1.497a.04.04 0 0 1 .037-.025"/><path fill="#C52D35" d="M33.413 19.804h-.783c-.056 0 .225.053.245.104l.554 1.37c.011.03.04.048.07.048h.476l-.489-1.47a.075.075 0 0 0-.073-.052m-1.023.488c0 .307-.039.325-.039.325s-.044-.294-.272-.294c-.223 0-.275.13-.275.227 0 .112.115.217.179.217h.407l-.24.531a.05.05 0 0 1-.045.028h-.186c-.193 0-.7-.253-.7-.742 0-.49.377-.78.69-.78.26 0 .481.177.481.488z"/><path fill="#5A1F57" d="M32.745 16.597H31.46a.171.171 0 0 1-.172-.171v-.216a.17.17 0 0 1 .172-.17h1.285a.17.17 0 0 1 .172.17v.216a.171.171 0 0 1-.172.17"/><path fill="#C2B5CF" d="M31.73 16.4h.745v-2h-.744z"/></g></g><path fill="#E7E5E2" d="M23.632 28.417s-.084.476-.193.397a1.298 1.298 0 0 0-.485-.098c-.742 0-1.345.622-1.347 1.392l-.007 5.325c-.001.77.599 1.394 1.342 1.395.297 0 .57-.102.793-.272 1.797 8.575 8.2 14.63 15.836 14.644 7.636.012 14.06-6.023 15.881-14.592.223.17.495.274.793.275.743 0 1.346-.622 1.347-1.391l.008-5.326c0-.77-.6-1.394-1.342-1.396-.172 0-.335.037-.485.097-17.221 2.041-23.228-9.666-23.736-9.667 0 0-7.202 6.742-8.405 9.217z"/><path fill="#635E59" d="M33.86 33.426c-1.157.087-1.481-1.62-1.132-2.734.065-.21.449-1.172 1.127-1.172.678 0 .977.525 1.018.616.499 1.086.254 3.194-1.012 3.29m12.919 0c1.158.087 1.482-1.62 1.133-2.734-.066-.21-.449-1.172-1.127-1.172a1.14 1.14 0 0 0-1.019.616c-.498 1.086-.253 3.194 1.013 3.29"/><path stroke="#D1BFA3" stroke-linecap="round" stroke-width=".8" d="M40.627 34.993c.69-.107 1.366-.081 1.683.308.772.948.55 2.044-.75 2.852-.65.404-1.57.57-2.133.32"/><path stroke="#D19E9C" stroke-linecap="round" stroke-width=".8" d="M45.614 41.38s-1.463 3.35-5.532 3.225c-4.068-.125-5.594-3.225-5.594-3.225"/></g><path fill="#145570" d="M21.28 28.289c0-10.93 8.344-19.79 18.637-19.79 10.292 0 18.636 8.86 18.636 19.79 0 2.17-.333 4.257-.942 6.212a19.73 19.73 0 0 0 2.058-8.796c0-10.93-8.844-19.79-19.752-19.79-10.91 0-19.753 8.86-19.753 19.79 0 3.16.743 6.146 2.058 8.796a20.857 20.857 0 0 1-.942-6.212"/><path fill="#38383A" d="M60.851 42.052h-3.295a1.541 1.541 0 0 1-1.533-1.54v-13.79c0-.847.69-1.54 1.533-1.54h3.295c.844 0 1.534.693 1.534 1.54v13.79c0 .847-.69 1.54-1.534 1.54m-41.804 0h3.295c.844 0 1.534-.693 1.534-1.54v-13.79c0-.847-.69-1.54-1.534-1.54h-3.295c-.843 0-1.533.693-1.533 1.54v13.79c0 .847.69 1.54 1.533 1.54m20.87-36.41c-3.49 0-6.78.898-9.688 2.482v3.301c2.875-1.787 6.175-2.806 9.688-2.806 3.727 0 7.216 1.15 10.213 3.148V8.413a20.209 20.209 0 0 0-10.213-2.771m-4.115 43.029v2.35c0 .601.49 1.094 1.09 1.094h6.05c.6 0 1.089-.493 1.089-1.094v-2.35c0-.601-.49-1.094-1.089-1.094h-6.05c-.6 0-1.09.493-1.09 1.094"/><path fill="#145570" d="M58.254 42.052l-.032-.002c-2.258 3.86-7.64 6.75-14.191 7.426v1.036c8.044-.117 14.684-3.724 16.091-8.46h-1.868z"/></g></svg>