<svg xmlns="http://www.w3.org/2000/svg" width="94" height="94"><g fill="none" fill-rule="evenodd"><path fill="#9BD0B0" fill-rule="nonzero" d="M47 0C21.083 0 0 21.087 0 47s21.083 47 47 47c25.913 0 47-21.087 47-47S72.913 0 47 0zm20.919 34.725L38.544 62.142a1.965 1.965 0 0 1-2.722-.047l-9.792-9.792a1.96 1.96 0 0 1 0-2.769 1.96 1.96 0 0 1 2.77 0l8.451 8.452 27.993-26.124a1.96 1.96 0 0 1 2.769.09c.74.791.697 2.033-.094 2.773z"/><path fill="#3E3832" d="M67.919 34.725L38.544 62.142a1.965 1.965 0 0 1-2.722-.047l-9.792-9.792a1.96 1.96 0 0 1 0-2.769 1.96 1.96 0 0 1 2.77 0l8.451 8.452 27.993-26.124a1.96 1.96 0 0 1 2.769.09c.74.791.697 2.033-.094 2.773z"/></g></svg>