<svg xmlns="http://www.w3.org/2000/svg" xmlns:xlink="http://www.w3.org/1999/xlink" width="110" height="110" viewBox="0 0 110 110"><defs><path id="c" d="M15.743.248l-.002-.08c0 2.08 3.086 7.632 9.259 16.658C31.042 7.992 34.127 2.485 34.255.305c2.65.719 6.587 2.705 9.862 5.97C47.39 9.535 50 14.441 50 18.25v22.88H0V18.25c0-3.8 2.555-8.698 5.769-11.956C9.088 2.93 13.109.915 15.743.248z"/><path id="e" d="M33.256 50.28l.05-.088c4.427-2.832 7.863-7.603 9.519-13.368.202.113.431.176.674.176.829 0 1.5-.74 1.5-1.657v-6.685c0-.523-.384-1.06-1.153-1.613L23.98 13 3.973 27.105c-.65.56-.974 1.078-.974 1.553v6.685c0 .917.672 1.657 1.5 1.657.183 0 .359-.036.52-.102 1.675 5.768 5.132 10.534 9.58 13.347l.016.034L14.6 51h-1.071C9.26 50.9 0 41 0 28.063 0 11.99 9.686-.022 23.98 0 38.275.023 48 11.989 48 28.063 47.999 42 38.065 50.653 34 51c-.643-.016-.891-.016-.744 0v-.72z"/><circle id="a" cx="55" cy="55" r="55"/></defs><g fill="none" fill-rule="evenodd"><mask id="b" fill="#fff"><use xlink:href="#a"/></mask><use fill="#CCE1F3" xlink:href="#a"/><g mask="url(#b)"><path fill="#E7E5E2" fill-rule="nonzero" d="M54.913 23.5c10.69 0 19.437 9.757 20.41 22.19.698.339 1.177 1.097 1.177 1.968v6.685c0 1.13-.808 2.072-1.856 2.152l-.144.005c-.118 0-.233-.01-.345-.032-1.714 5.566-5.073 10.188-9.377 13.016l.22 2.48-.001.1L62.67 92.5H47.914l-.06-.43L45 72.03l.105-2.508c-4.326-2.82-7.703-7.45-9.428-13.032l-.033.005-.144.005c-1.116 0-2-.975-2-2.157v-6.685c0-.792.397-1.492.995-1.867C35.428 33.31 44.193 23.5 54.913 23.5z"/><g fill="#59514B"><path d="M47.885 50.946c-1.297.106-1.66-1.967-1.27-3.321.074-.257.504-1.425 1.264-1.425s1.095.639 1.141.748c.559 1.32.284 3.881-1.135 3.998m15.045 0c1.298.106 1.661-1.967 1.27-3.321-.073-.257-.503-1.425-1.263-1.425-.76 0-1.095.639-1.141.748-.559 1.32-.284 3.881 1.135 3.998"/><path fill-rule="nonzero" d="M55.889 52.99c.776-.135 1.305-.05 1.495.21.716.99.487 2.035-.741 2.894-.646.45-1.536.61-2.006.376-.23-.115-.5.002-.602.26-.101.26.003.562.233.676.778.387 1.974.173 2.856-.443 1.67-1.167 2.052-2.911.967-4.409-.459-.632-1.272-.762-2.34-.577-.25.043-.42.305-.382.584.038.28.271.471.52.428zm5.61 6.793a4.22 4.22 0 01-.318.53 6.807 6.807 0 01-1.075 1.222c-1.292 1.159-2.973 1.83-5.113 1.768-2.087-.06-3.76-.72-5.073-1.784a7.206 7.206 0 01-1.198-1.226 4.255 4.255 0 01-.356-.53.522.522 0 00-.676-.214.458.458 0 00-.23.631c.074.14.219.37.44.66.362.475.812.95 1.358 1.391 1.481 1.202 3.374 1.948 5.704 2.015 2.426.07 4.365-.704 5.844-2.03a7.761 7.761 0 001.226-1.396c.198-.29.327-.52.393-.66a.46.46 0 00-.261-.62.52.52 0 00-.665.243z"/></g><g transform="translate(30 69.87)"><mask id="d" fill="#fff"><use xlink:href="#c"/></mask><use fill="#D8A25D" xlink:href="#c"/><g fill="#0C5472" mask="url(#d)"><path d="M-33.333 66.826h117v-93h-117z"/></g><path fill="#DADE99" d="M10.344 41.13h28.515L40.74 2.485a36.626 36.626 0 00-1.585-1.253L36.992 21.05l-23.695.734L10.8.934c-.507.343-1.022.713-1.54 1.109l1.084 39.087z" mask="url(#d)"/></g><g transform="translate(31 19)"><mask id="f" fill="#fff"><use xlink:href="#e"/></mask><use fill="#F5B773" xlink:href="#e"/><g fill="#F6B873" mask="url(#f)"><path d="M-12-14h69v79h-69z"/></g></g></g></g></svg>