<svg xmlns="http://www.w3.org/2000/svg" width="100" height="100" viewBox="0 0 100 100"><g fill="none" fill-rule="evenodd"><circle cx="50" cy="50" r="50" fill="#CCE1F3"/><path fill="#0C576F" d="M25.78 48.577L25 41.43l23.86-19.97a1.64 1.64 0 012.282 0L75 41.432l-.893 8.719L50 64.283 25.78 48.577z"/><path fill="#DCDCD2" d="M70.038 62.517H29.964c-.277 0-.5-.22-.5-.487V35.62c0-.269.223-.488.5-.488h40.074c.275 0 .498.219.498.488v26.41a.494.494 0 01-.498.487"/><path fill="#8F9395" d="M37.5 46.617h25V44.85h-25zm0 4.416h25v-1.766h-25zm0 4.417h25v-1.767h-25zm0 4.417h25V58.1h-25z"/><path fill="#D94C56" d="M26.86 74h40.086C67.974 74 25 41.317 25 41.317v30.832C25 73.17 25.832 74 26.86 74"/><path fill="#C52C35" d="M73.14 74H33.055C32.027 74 75 41.317 75 41.317v30.832A1.856 1.856 0 0173.14 74"/></g></svg>