<svg xmlns="http://www.w3.org/2000/svg" xmlns:xlink="http://www.w3.org/1999/xlink" width="100" height="100" viewBox="0 0 100 100"><defs><path id="c" d="M25 9.362c5.024 0 9.114-4.68 9.255-9.124L34.26 0c.477 0 5.655 2.088 9.858 6.284C47.39 9.55 50 14.464 50 18.277v11.68c0 6.205-4.975 11.234-11.111 11.234H0V18.277c0-3.805 2.555-8.71 5.769-11.974C9.91 2.098 15.356 0 15.74 0c0 4.513 4.145 9.362 9.259 9.362z"/><path id="e" d="M25 0c12.484 0 23 12.687 23 28.337L47.98 66c-2.734-6.125-10.407-12.329-14.72-13.949V50S35 49 37 46c1.273-1.909 1.902-3.418 2.303-5.078 2.242-.282 3.852-1.39 4.69-3.922.992-3 .47-5-1.53-6l-2.964-.856-.499-.17C35 28.635 27.902 24 23.902 21c-2.667-2-4.716-4-6.147-6-2.585 1.63-5.17 3.63-7.755 6s-4.252 5.037-5 8c0 0-1 4.555.021 10 1.022 5.445 5.12 11.348 9.72 12.593v.458C10.497 53.591 2.745 59.814.014 66L0 28.337C0 12.687 11 0 25 0z"/><path id="g" d="M.916 1.798V.028H.023v1.77h.893z"/><circle id="a" cx="50" cy="50" r="50"/></defs><g fill="none" fill-rule="evenodd"><mask id="b" fill="#fff"><use xlink:href="#a"/></mask><use fill="#CCE1F3" xlink:href="#a"/><g mask="url(#b)"><path fill="#E7E5E2" fill-rule="nonzero" d="M49.749 20.5c7.375 0 13.51 3.933 16.416 9.976C68.06 34.421 68 39.266 68 44.5c0 .198-.001.386-.004.566.357.132.692.277 1.004.434 1.256.631 2 2 2 3v.273c-.008.917-.09 1.909-1 3.727-1.365 2.73-3.202 3.596-4.545 3.872-.927 2.766-2.348 5.167-4.455 7.128-.393.365-.795.698-1.21 1l-.42 2-.37 5-2.104 17H43.65L41 71.5l-.482-5-.033-.19C35.074 64.197 30 58.515 30 47.617 30 33.532 37.558 20.5 49.749 20.5z"/><path fill="#59514B" fill-rule="nonzero" d="M49.93 57.186c-.027.06-.094.183-.207.348a4.195 4.195 0 01-.763.83c-1.11.93-2.69 1.397-4.876 1.142-1.085-.126-1.85-.58-2.375-1.271a3.417 3.417 0 01-.499-.928 2.35 2.35 0 01-.11-.402c-.038-.254-.314-.433-.617-.401-.302.032-.517.263-.479.516.067.442.29 1.074.774 1.712.69.909 1.73 1.525 3.154 1.69 2.534.296 4.457-.272 5.809-1.404.666-.558 1.052-1.119 1.225-1.513.105-.24-.042-.506-.328-.594-.286-.088-.603.035-.708.275z"/><path fill="#635E59" d="M37.881 47.456c1.245.371 2.145-1.71 2.118-3.196-.004-.282-.118-1.583-.864-1.735-.744-.153-1.24.443-1.315.548-.895 1.26-1.3 3.976.061 4.383"/><path fill="#59514B" d="M51.924 44.113c-.056-.277-.408-1.54-1.213-1.608-.806-.068-1.216.572-1.274.684-.708 1.335-.644 4.046.85 4.294 1.366.227 1.931-1.916 1.637-3.37z"/><path fill="#59514B" fill-rule="nonzero" d="M41.844 48.306a2.277 2.277 0 01-2.016.516c-.76-.104-1.276-.024-1.464.203-.741.893-.504 1.838.767 2.614.668.408 1.588.551 2.075.34a.475.475 0 01.622.236.46.46 0 01-.24.61c-.805.35-2.043.156-2.955-.4-1.728-1.056-2.123-2.632-1-3.984.46-.555 1.266-.68 2.326-.535.075.015.102.021.135.026a1.345 1.345 0 001.119-.313.478.478 0 01.666.034.456.456 0 01-.035.653z"/><g transform="translate(25 66.309)"><mask id="d" fill="#fff"><use xlink:href="#c"/></mask><use fill="#D8A25D" xlink:href="#c"/><g fill="#5C4378" mask="url(#d)"><path d="M-33.333 67.787h117v-94h-117z"/></g></g><g transform="translate(26 14.5)"><mask id="f" fill="#fff"><use xlink:href="#e"/></mask><use fill="#F6B873" xlink:href="#e"/><g fill="#F6B873" mask="url(#f)"><path d="M-10-1h68v72h-68z"/></g></g></g><g mask="url(#b)"><path fill="#FFF" d="M69.748 93H54.25A1.26 1.26 0 0153 91.73v-8.46c0-.702.56-1.271 1.251-1.271h15.497c.691 0 1.252.57 1.252 1.271v8.458a1.26 1.26 0 01-1.252 1.271"/><path fill="#C30000" d="M62.124 91.998c-1.907 0-3.454-1.567-3.454-3.499 0-1.932 1.547-3.499 3.454-3.499 1.908 0 3.455 1.567 3.455 3.499 0 1.932-1.547 3.499-3.455 3.499zM57 90.027l.706-1.77h.678l-.705 1.77zm8.712 0l.697-1.77h.37l-.697 1.77z"/><g transform="translate(67.06 88.228)"><mask id="h" fill="#fff"><use xlink:href="#g"/></mask><path fill="#C30000" d="M.023 1.798L.72.028h.196L.22 1.798z" mask="url(#h)"/></g><path fill="#FEFEFE" d="M65.07 88.257h-.614s-.042 0-.057.038l-.34 1.053-.34-1.053c-.014-.038-.057-.038-.057-.038h-1.18a.048.048 0 00-.047.047v.358c0-.284-.299-.405-.473-.405-.391 0-.653.26-.734.657-.005-.263-.026-.357-.096-.454a.452.452 0 00-.13-.12c-.104-.061-.197-.083-.398-.083h-.236s-.043 0-.058.038l-.215.539v-.53a.048.048 0 00-.046-.047h-.546s-.043 0-.058.038l-.223.56s-.022.056.028.056h.21v1.068c0 .027.021.048.047.048h.542a.047.047 0 00.046-.048v-1.068h.211c.121 0 .147.004.194.026a.13.13 0 01.068.058c.029.054.036.12.036.312v.672c0 .027.02.048.047.048h.519s.058 0 .081-.059l.115-.288c.153.217.405.347.718.347h.068s.06 0 .082-.059l.2-.502v.513c0 .027.022.048.048.048h.53s.058 0 .081-.059l.213-.537c.008-.044-.047-.044-.047-.044h-.189v-.914l.595 1.495a.092.092 0 00.082.059h.625s.06 0 .082-.059l.66-1.654c.023-.057-.044-.057-.044-.057zm-2.635 1.13h-.356a.258.258 0 01-.257-.26c0-.143.115-.26.257-.26h.1a.26.26 0 01.256.26v.26z"/><path fill="#5A1F57" d="M62.931 83.746h-1.606a.214.214 0 01-.215-.214v-.27c0-.117.096-.213.215-.213h1.606c.12 0 .215.096.215.214v.27a.214.214 0 01-.215.213"/><path fill="#C2B5CF" d="M61.663 83.5h.93V81h-.93z"/></g></g></svg>