<svg xmlns="http://www.w3.org/2000/svg" width="6.25rem" height="6.25rem" viewBox="0 0 6.25rem 6.25rem"><g fill="none" fill-rule="evenodd"><circle cx="50" cy="50" r="50" fill="#CCE1F3"/><path fill="#78706A" d="M50 24c.932 0 1.688.756 1.688 1.688V78h-3.376V25.687c0-.931.756-1.687 1.688-1.687z"/><path fill="#FFBD66" d="M31.15 28.5h38.835a1.4 1.4 0 011.147.598l5.308 7.6a1.4 1.4 0 010 1.604l-5.308 7.6a1.4 1.4 0 01-1.147.598H31.15a1.4 1.4 0 01-1.4-1.4V29.9a1.4 1.4 0 011.4-1.4z"/><path fill="#9BD0B0" d="M68.85 51H30.015a1.4 1.4 0 00-1.147.598l-5.308 7.6a1.4 1.4 0 000 1.604l5.308 7.6a1.4 1.4 0 001.147.598H68.85a1.4 1.4 0 001.4-1.4V52.4a1.4 1.4 0 00-1.4-1.4z"/></g></svg>