<svg xmlns="http://www.w3.org/2000/svg" width="48" height="48" viewBox="0 0 60 60"><g fill="none" fill-rule="evenodd"><circle cx="30" cy="30" r="30" fill="#CCE1F3"/><path fill="#3385D1" d="M43.516 36.684l-3.159-3.158a3.272 3.272 0 00-2.333-.967c-.882 0-1.71.342-2.334.967l-.846.845a70.142 70.142 0 01-9.218-9.217l.846-.846a3.303 3.303 0 000-4.666l-3.159-3.158a3.275 3.275 0 00-2.333-.967 3.28 3.28 0 00-2.335.967l-1.733 1.732a4.802 4.802 0 00-.604 6.025 69.459 69.459 0 0019.45 19.445c.787.521 1.7.797 2.643.797 1.279 0 2.48-.498 3.382-1.4l1.733-1.734c.623-.622.967-1.45.967-2.333 0-.88-.344-1.71-.967-2.332"/></g></svg>