<svg width="48" height="48" viewBox="0 0 36 48" fill="none" xmlns="http://www.w3.org/2000/svg">
<path fill-rule="evenodd" clip-rule="evenodd" d="M33.1989 3.94531H2.30663C1.03167 3.94531 0 4.98873 0 6.2779V45.6682C0 45.9086 0.0361644 46.1424 0.103233 46.3603C0.215671 46.7262 0.415562 47.0523 0.67726 47.3173C0.72789 47.3678 0.783123 47.4203 0.841644 47.4668C1.18159 47.7524 1.60636 47.9383 2.06992 47.9875C2.14882 47.9955 2.22773 48.0001 2.30663 48.0001H33.1989C34.4739 48.0001 35.5069 46.9554 35.5069 45.6682V6.2779C35.5069 4.98873 34.4739 3.94531 33.1989 3.94531" fill="#515658"/>
<mask id="mask0" mask-type="alpha" maskUnits="userSpaceOnUse" x="3" y="7" width="29" height="38">
<path fill-rule="evenodd" clip-rule="evenodd" d="M3.2876 13.6575V42.8179C3.2876 43.8639 4.11001 44.7119 5.12493 44.7119H29.7253C30.7392 44.7119 31.5616 43.8639 31.5616 42.8179V9.12643C31.5616 8.08045 30.7392 7.23242 29.7253 7.23242H10.0943L3.2876 13.6575Z" fill="white"/>
</mask>
<g mask="url(#mask0)">
<rect width="36.1279" height="47.6524" transform="translate(-0.901367 1.87793)" fill="white"/>
</g>
<path fill-rule="evenodd" clip-rule="evenodd" d="M10.0943 7.23242V11.7071C10.0943 12.7845 9.21881 13.6575 8.1384 13.6575H3.2876L10.0943 7.23242Z" fill="#C9C9C9"/>
<path fill-rule="evenodd" clip-rule="evenodd" d="M13.2363 21.689H25.2789V20.6182H13.2363V21.689Z" fill="#A59D96"/>
<path fill-rule="evenodd" clip-rule="evenodd" d="M13.2363 25.4371H25.2789V24.3662H13.2363V25.4371Z" fill="#A59D96"/>
<path fill-rule="evenodd" clip-rule="evenodd" d="M13.2363 28.6499H25.2789V27.5791H13.2363V28.6499Z" fill="#A59D96"/>
<path fill-rule="evenodd" clip-rule="evenodd" d="M13.2363 32.398H25.2789V31.3271H13.2363V32.398Z" fill="#A59D96"/>
<path fill-rule="evenodd" clip-rule="evenodd" d="M12.1888 19.5498H11.6347H10.1249H9.5708V20.1346V21.6421V22.2269H10.1249H11.6347H12.1888V21.6421V20.1346V19.5498ZM10.1249 21.6422H11.6347V20.1346H10.1249V21.6422Z" fill="#A59D96"/>
<path fill-rule="evenodd" clip-rule="evenodd" d="M12.1888 23.208H11.6347H10.1249H9.5708V23.7929V25.3002V25.8851H10.1249H11.6347H12.1888V25.3002V23.7929V23.208ZM10.1249 25.3002H11.6347V23.7929H10.1249V25.3002Z" fill="#A59D96"/>
<path fill-rule="evenodd" clip-rule="evenodd" d="M12.1888 26.8652H11.6347H10.1249H9.5708V27.4503V28.9573V29.5423H10.1249H11.6347H12.1888V28.9573V27.4503V26.8652ZM10.1249 28.9573H11.6347V27.4503H10.1249V28.9573Z" fill="#A59D96"/>
<path fill-rule="evenodd" clip-rule="evenodd" d="M12.1888 30.5234H11.6347H10.1249H9.5708V31.1083V32.6156V33.2005H10.1249H11.6347H12.1888V32.6156V31.1083V30.5234ZM10.1249 32.6156H11.6347V31.1083H10.1249V32.6156Z" fill="#A59D96"/>
<path d="M10.3789 20.4954L11.5422 18.4766L12.1889 19.1499L10.4173 22.2245L9.04736 20.1193L9.66302 19.3953L10.3789 20.4954Z" fill="#2F3237"/>
<path d="M11.4118 21.6895L12.1889 22.2773L10.4327 25.4374L9.04736 23.2303L9.79462 22.5919L10.3863 23.5346L11.4118 21.6895Z" fill="#2F3237"/>
<path fill-rule="evenodd" clip-rule="evenodd" d="M18.0833 5.45238C17.6814 5.45238 17.3562 5.11642 17.3562 4.69945C17.3562 4.28249 17.6814 3.94454 18.0833 3.94454C18.4833 3.94454 18.8097 4.28249 18.8097 4.69945C18.8097 5.11642 18.4833 5.45238 18.0833 5.45238M22.5717 2.36965H19.867V1.8511C19.867 0.828613 19.0676 0 18.0833 0C17.0958 0 16.2983 0.828613 16.2983 1.8511V2.36965H13.5936C12.2605 2.36965 11.1782 3.49239 11.1782 4.87607V7.89041H24.9864V4.87607C24.9864 3.49239 23.9048 2.36965 22.5717 2.36965" fill="#2F3237"/>
</svg>
