<svg width="48" height="48" viewBox="0 0 48 48" xmlns="http://www.w3.org/2000/svg"><title>Snakkebobler ikon</title><g fill-rule="nonzero" fill="none"><path d="M4.255 24.29C1.467 21.753 0 18.51 0 14.857 0 6.805 7.786 0 17 0s17 6.805 17 14.857c0 8.188-7.432 15.104-16.23 15.104-2.216 0-4.39-.436-6.466-1.3l-8.64 3.266a1.134 1.134 0 01-1.242-.304 1.156 1.156 0 01-.173-1.278l3.006-6.055z" fill="#9BD0B0"/><path d="M44.246 41.254C46.706 39.034 48 36.196 48 33c0-7.046-6.87-13-15-13-8.13 0-15 5.954-15 13 0 7.164 6.558 13.216 14.32 13.216 1.956 0 3.874-.382 5.706-1.138l7.624 2.858a1.004 1.004 0 001.096-.266c.276-.306.334-.75.152-1.118l-2.652-5.298z" fill="#669DB4"/></g></svg>
