<svg xmlns="http://www.w3.org/2000/svg" xmlns:xlink="http://www.w3.org/1999/xlink" width="162" height="120"><defs><path id="a" d="M68.393 33.741h-.06C68.333 15.107 54.878 0 38.276 0 21.676 0 8.221 15.107 8.221 33.741v.017C8.216 49.672 0 58.77 0 58.77s8.113 9.94 38.277 9.94h.059c30.166 0 38.28-9.94 38.28-9.94s-8.223-9.105-8.223-25.03"/><path id="c" d="M30.264 0H21.18C16.28 0 0 11.607 0 22.172v27.8h60.812v-27.8C60.812 11.607 44.247 0 39.35 0h-9.086z"/><path id="e" d="M49.802 28.295c-4.67-5.59-7.938-13.425-7.938-13.425-14.859-4.476-33.463.138-33.587.577C6.591 21.417.353 28.8.353 28.8.448 14.139 8.254-.03 25.06 0c17.238-.06 24.286 12.921 24.742 28.295z"/><path id="g" d="M24.29 21.637c-5.701 0-10.322-1.876-10.322-4.19 0-2.315 4.62-4.191 10.322-4.191 5.701 0 10.323 1.876 10.323 4.19 0 2.315-4.622 4.191-10.323 4.191m.552-10.744c-3.602 0-6.05.02-10.777 2.394C3.139 18.772 0 0 0 0c0 30.879 14.953 38.4 24.677 38.4C34.554 38.4 50.4 32.423 50.4 0c-.66.515-4.673 17.12-15.873 13.006-4.348-1.597-6.084-2.113-9.685-2.113z"/></defs><g fill="none" fill-rule="evenodd"><g transform="translate(.4 11.4)"><mask id="b" fill="#fff"><use xlink:href="#a"/></mask><use fill="#E57F68" xlink:href="#a"/><g fill="#D2654C" mask="url(#b)"><path d="M0-2.25h77.812v88.813H0z"/></g></g><path fill="#E7E5E2" d="M24.025 72.035c1.17 1.95 4.458 36.211 14.325 36.211 9.87 0 14.325-34.898 14.325-36.714-15.11-9.019-28.65.503-28.65.503z"/><g transform="translate(8.275 70.007)"><mask id="d" fill="#fff"><use xlink:href="#c"/></mask><use fill="#D8A25D" xlink:href="#c"/><g mask="url(#d)"><path fill="#0C5472" d="M-37.163 83.676H105.26v-114.34H-37.163z"/></g></g><path fill="#F79221" d="M36.429 119.979l-2.372-49.972h-4.975c-3.06.313-8.52 4.051-10.046 5.494 0 .039 4.435 1.526-2.878 25.696v18.782h20.27zm4.504 0l2.372-49.972h4.975c3.06.313 8.521 4.051 10.046 5.494 0 .039-4.435 1.526 2.878 25.696v18.782h-20.27z"/><path fill="#D8D8D8" fill-rule="nonzero" d="M16.158 104.079h19.517l.187 3.407H16.158zm0 9.085h19.94l.188 3.407H16.158zm45.042-9.085H41.685l-.187 3.407H61.2zm0 9.085H41.273l-.193 3.407h20.122z"/><path fill="#E7E5E2" d="M15.932 42.36s-.118.67-.27.56a1.826 1.826 0 0 0-.683-.138c-1.043-.001-1.891.875-1.893 1.957l-.011 7.488c-.002 1.083.842 1.96 1.888 1.963.417 0 .8-.144 1.114-.383C18.604 65.866 27.61 74.381 38.347 74.4c10.738.017 19.771-8.47 22.333-20.52.312.24.696.385 1.115.386 1.044.002 1.892-.875 1.893-1.956l.012-7.49c.001-1.081-.843-1.96-1.888-1.962-.24 0-.47.051-.682.137C36.913 45.865 28.466 29.4 27.752 29.4c0 0-10.128 9.48-11.82 12.96z"/><path fill="#635E59" d="M29.897 49.55c-1.61.125-2.06-2.328-1.575-3.93.091-.303.624-1.685 1.567-1.685.942 0 1.358.755 1.416.885.693 1.562.353 4.592-1.408 4.73m17.961 0c1.61.125 2.06-2.328 1.575-3.93-.091-.303-.624-1.685-1.567-1.685-.942 0-1.358.755-1.416.885-.693 1.562-.352 4.592 1.408 4.73"/><path fill="#D1BFA3" fill-rule="nonzero" d="M39.388 52.37c.946-.15 1.593-.056 1.824.238.874 1.11.595 2.285-.904 3.25-.789.506-1.874.684-2.448.422a.55.55 0 0 0-.733.293c-.125.29.002.63.283.758.95.435 2.41.195 3.485-.497 2.037-1.31 2.503-3.27 1.18-4.952-.56-.711-1.552-.856-2.856-.649a.573.573 0 0 0-.465.656c.046.314.33.53.634.481z"/><path fill="#D19E9C" fill-rule="nonzero" d="M45.727 60.754c-.05.12-.165.347-.35.646a8.105 8.105 0 0 1-1.183 1.49c-1.423 1.413-3.274 2.23-5.63 2.155-2.297-.073-4.14-.877-5.585-2.174a8.477 8.477 0 0 1-1.319-1.495 5.265 5.265 0 0 1-.392-.646.548.548 0 0 0-.744-.262.584.584 0 0 0-.254.77c.082.172.241.452.484.805.399.58.895 1.157 1.496 1.696 1.63 1.464 3.715 2.374 6.28 2.456 2.67.084 4.806-.858 6.434-2.476a9.241 9.241 0 0 0 1.35-1.7c.218-.353.36-.633.432-.805a.583.583 0 0 0-.287-.757.55.55 0 0 0-.732.297z"/><g><g fill-rule="nonzero"><path fill="#FFBD66" d="M68.8 30.6v6h-60v-6h2.426c.54-12.647 9.593-23.09 21.574-25.746V.6h12v4.254C56.781 7.51 65.833 17.953 66.374 30.6H68.8z"/><path fill="#E7A753" d="M44.8 5.4c1.89.455 3.49.942 4.8 1.462v11.505c0 3.51-4.8 3.51-4.8 0V5.4zm-12 0v12.967c0 3.51-4.8 3.51-4.8 0V6.862c1.31-.52 2.91-1.007 4.8-1.462z"/><path stroke="#E7A753" stroke-linecap="round" stroke-width="1.2" d="M23.8 30h30"/></g></g><g><path fill="#E7E5E2" d="M112.695 68.55c1.226 1.96 4.668 36.393 15 36.393 10.335 0 15-35.073 15-36.899-15.822-9.064-30 .506-30 .506z"/><path fill="#FFF" stroke="#E7E9E9" stroke-width="1.2" d="M137.825 64.143h-19.362c-5.22 0-22.568 12.82-22.568 24.491v30.709h64.8V88.634c0-11.671-17.65-24.491-22.87-24.491"/><path fill="#8A3B2C" d="M119.686 88.125c0 .915-.645 1.656-1.44 1.656-.795 0-1.44-.74-1.44-1.656 0-.915.645-1.656 1.44-1.656.795 0 1.44.741 1.44 1.656m0 10.993c0 .915-.645 1.656-1.44 1.656-.795 0-1.44-.74-1.44-1.656 0-.915.645-1.656 1.44-1.656.795 0 1.44.741 1.44 1.656m0 10.993c0 .915-.645 1.656-1.44 1.656-.795 0-1.44-.741-1.44-1.656 0-.915.645-1.656 1.44-1.656.795 0 1.44.741 1.44 1.656"/><path stroke="#74706C" stroke-width=".6" d="M122.565 68.94l-7.92 6.548v43.634"/><path fill="#E7E5E2" d="M152.52 50.067c-3.021 12.285-12.723 21.276-24.225 21.276s-21.203-8.99-24.225-21.276a2.724 2.724 0 0 1-.975.177c-1.323 0-2.4-.925-2.4-2.07v-8.359c0-1.146 1.077-2.072 2.4-2.072.086 0 .17.004.254.011 1.742-14.253 12.246-25.211 24.946-25.211 12.7 0 23.204 10.958 24.947 25.211a3.02 3.02 0 0 1 .253-.011c1.327 0 2.4.926 2.4 2.072v8.358c0 1.146-1.073 2.071-2.4 2.071a2.72 2.72 0 0 1-.974-.177z"/><path fill="#635E59" d="M120.307 39.171c-1.737.095-2.223-1.74-1.7-2.936.099-.228.674-1.262 1.691-1.262s1.466.566 1.528.663c.748 1.167.382 3.433-1.52 3.535m18.18 0c1.736.095 2.222-1.74 1.7-2.936-.1-.228-.674-1.262-1.692-1.262-1.016 0-1.465.566-1.527.663-.748 1.167-.38 3.433 1.52 3.535"/><path stroke="#D1BFA3" stroke-linecap="round" stroke-width="1.2" d="M130.456 42.351c1.038-.16 2.05-.12 2.525.462 1.158 1.424.825 3.066-1.125 4.28-.974.606-2.354.854-3.2.48"/><path stroke="#593A32" stroke-linecap="round" stroke-width="1.216" d="M122.432 54.324s.886 1.021 3.352 1.002l2.467-.02"/><g><g transform="translate(103.073 7.743)"><mask id="f" fill="#fff"><use xlink:href="#e"/></mask><g fill="#3E3832" mask="url(#f)"><path d="M-16.483-34.8h80.805V60h-80.805z"/></g></g></g><g><g transform="translate(102.975 37.743)"><mask id="h" fill="#fff"><use xlink:href="#g"/></mask><g fill="#3E3832" mask="url(#h)"><path d="M-16.8-30H66v94.8h-82.8z"/></g></g></g></g></g></svg>