<svg xmlns="http://www.w3.org/2000/svg" width="120" height="120" viewBox="0 0 120 120">
    <g fill="none" fill-rule="evenodd">
        <circle cx="60" cy="60" r="60" fill="#9BD0B0"/>
        <path fill="#0C576F" d="M28.05 56.463L27 46.756l32.067-27.129a2.189 2.189 0 0 1 3.068 0L94.2 46.756 93 58.6 60.6 77.8 28.05 56.463z"/>
        <path fill="#DCDCD2" d="M87.531 75.4h-53.86a.668.668 0 0 1-.671-.662V38.863c0-.366.3-.663.671-.663h53.86c.37 0 .669.297.669.663v35.875c0 .363-.3.662-.669.662"/>
        <path fill="#D94C56" d="M29.499 91h53.877C84.756 91 27 46.6 27 46.6v41.885A2.508 2.508 0 0 0 29.499 91"/>
        <path fill="#C52C35" d="M91.701 91H37.824C36.444 91 94.2 46.6 94.2 46.6v41.885A2.508 2.508 0 0 1 91.701 91"/>
        <g fill-rule="nonzero">
            <path fill="#06893A" d="M59.6 43c-5.294 0-9.6 4.307-9.6 9.6 0 5.293 4.306 9.6 9.6 9.6 5.293 0 9.6-4.307 9.6-9.6 0-5.293-4.307-9.6-9.6-9.6z"/>
            <path fill="#FFF" d="M57.152 55.108a.45.45 0 0 1 .595.007l-.29-.27-.305.263zm.324-1.376l5.549-4.808a1.364 1.364 0 0 1 1.826.056c.488.484.46 1.244-.06 1.697l-6.465 5.602a1.35 1.35 0 0 1-.88.321c-.339 0-.666-.123-.914-.351l-2.154-2a1.14 1.14 0 0 1 0-1.697 1.364 1.364 0 0 1 1.828 0l1.27 1.18z"/>
        </g>
    </g>
</svg>
